<?xml version="1.0" encoding="iso-8859-1"?>
<!-- Uploaded to: SVG Repo, www.svgrepo.com, Generator: SVG Repo Mixer Tools -->
<svg fill="#000000" height="800px" width="800px" version="1.1" id="Layer_1" xmlns="http://www.w3.org/2000/svg" xmlns:xlink="http://www.w3.org/1999/xlink" 
	 viewBox="0 0 512 512" xml:space="preserve">
<g>
	<g>
		<path d="M502.111,299.522c0.273-2.064,0.427-4.149,0.427-6.249c0-26.507-21.534-48.079-48.026-48.145
			c-7.83-16.135-24.392-27.185-43.34-27.185c-9.625,0-18.794,2.826-26.529,7.943c-7.737-5.117-16.905-7.943-26.529-7.943
			c-18.947,0-35.509,11.05-43.34,27.185c-26.492,0.066-48.026,21.638-48.026,48.145c0,2.108,0.148,4.192,0.413,6.249h-6.541v33.391
			h12.451L294.449,512h180.389l21.378-179.086h12.451v-33.391H502.111z M445.195,478.609H324.092l-17.392-145.695h8.619
			l16.289,60.973h106.071l16.289-60.973h8.619L445.195,478.609z M349.881,332.914h69.525l-7.368,27.581h-54.788L349.881,332.914z
			 M467.754,299.522H301.54c-0.906-1.933-1.4-4.05-1.4-6.249c0-8.135,6.618-14.753,14.753-14.753c1.916,0,3.782,0.364,5.547,1.082
			l21.531,8.754l1.422-23.199c0.475-7.751,6.941-13.823,14.719-13.823c5.062,0,9.717,2.561,12.453,6.85l14.078,22.078l14.078-22.078
			c2.735-4.29,7.39-6.85,12.453-6.85c7.778,0,14.244,6.072,14.719,13.823l1.422,23.199l21.531-8.754
			c1.765-0.718,3.632-1.082,5.547-1.082c8.135,0,14.753,6.618,14.753,14.753C469.147,295.48,468.657,297.594,467.754,299.522z"/>
	</g>
</g>
<g>
	<g>
		<path d="M368.617,0c-22.437,0-40.691,18.254-40.691,40.691c0,22.437,18.254,40.691,40.691,40.691
			c22.437,0,40.691-18.254,40.691-40.691C409.307,18.254,391.053,0,368.617,0z M368.617,47.99c-4.025,0-7.299-3.275-7.299-7.299
			c0-4.025,3.275-7.299,7.299-7.299c4.025,0,7.299,3.275,7.299,7.299C375.916,44.715,372.641,47.99,368.617,47.99z"/>
	</g>
</g>
<g>
	<g>
		<path d="M436.621,78.239c-22.437,0-40.691,18.253-40.691,40.691c0,22.437,18.254,40.691,40.691,40.691
			s40.691-18.254,40.691-40.691S459.058,78.239,436.621,78.239z M436.621,126.228c-4.025,0-7.299-3.275-7.299-7.299
			s3.275-7.299,7.299-7.299c4.025,0,7.299,3.275,7.299,7.299S440.646,126.228,436.621,126.228z"/>
	</g>
</g>
<g>
	<g>
		<path d="M344.622,123.361c-22.437,0-40.691,18.254-40.691,40.691c0,22.437,18.254,40.691,40.691,40.691
			s40.691-18.254,40.691-40.691C385.312,141.615,367.058,123.361,344.622,123.361z M344.622,171.352
			c-4.025,0-7.299-3.275-7.299-7.299c0-4.026,3.275-7.299,7.299-7.299s7.299,3.275,7.299,7.299
			C351.921,168.077,348.646,171.352,344.622,171.352z"/>
	</g>
</g>
<g>
	<g>
		<path d="M228.383,246.885V182.27H22.448v64.616H3.334v33.391h19.114h86.272V512h33.391V280.277h86.272h19.114v-33.391H228.383z
			 M194.993,246.885h-52.882H108.72H55.839v-31.224h139.154V246.885z"/>
	</g>
</g>
</svg>