<?xml version='1.0' encoding='iso-8859-1'?>
<!DOCTYPE svg PUBLIC '-//W3C//DTD SVG 1.1//EN' 'http://www.w3.org/Graphics/SVG/1.1/DTD/svg11.dtd'>
<!-- Uploaded to: SVG Repo, www.svgrepo.com, Generator: SVG Repo Mixer Tools -->
<svg fill="#000000" height="800px" width="800px" version="1.1" xmlns="http://www.w3.org/2000/svg" viewBox="0 0 512 512" xmlns:xlink="http://www.w3.org/1999/xlink" enable-background="new 0 0 512 512">
  <g>
    <path d="m336,440c0,13.254 10.745,24 24,24 13.255,0 24-10.746 24-24v-24h-48v24z"/>
    <path d="m441.211,372.828l-53.508-22.938c-3.359-1.438-6.273-2.75-8.898-3.953-12.999-5.867-21.741-9.759-41.67-9.909-0.39-0.029-0.722-0.231-1.119-0.231-0.135,0-0.247,0.072-0.381,0.075-2.941-0.559-6.214-7.768-7.263-17.557 19.876-17.013 37.36-44.254 48.104-87.237 22.508-4.359 39.524-23.812 39.524-47.078s-17.016-42.719-39.523-47.078c-2.027-8.111-4.335-15.561-6.827-22.552l34.061-51.089c2.836-4.25 3.469-9.594 1.703-14.391-1.758-4.797-5.703-8.469-10.617-9.875l-134.399-38.406c-2.875-0.813-5.922-0.813-8.797-1.77636e-15l-134.398,38.407c-4.914,1.406-8.859,5.078-10.617,9.875-1.766,4.797-1.133,10.141 1.703,14.391l34.062,51.089c-2.492,6.991-4.8,14.44-6.827,22.552-22.508,4.358-39.524,23.811-39.524,47.077s17.016,42.719 39.523,47.078c10.744,42.983 28.229,70.225 48.104,87.237-1.091,10.192-4.603,17.685-7.627,17.685-0.003,0-0.005,0.002-0.008,0.002s-0.005-0.002-0.008-0.002c-20.773,0-29.531,3.953-42.781,9.938-2.633,1.188-5.547,2.516-8.906,3.953l-53.508,22.938c-23.562,10.093-38.789,33.187-38.789,58.827v64.344c0,8.844 7.164,16 16,16h416c8.836,0 16-7.156 16-16v-64.344c0-25.64-15.227-48.734-38.789-58.828zm-185.211-340.187l108.93,31.125-21.492,32.234h-174.876l-21.492-32.234 108.93-31.125zm66.422,95.359c-8.805,10.656-22.25,16-66.422,16-44.039,0-57.297-5.078-66.313-16h132.735zm-158.328,84.437c-1.555-7.5-8.148-12.766-15.656-12.766-0.523,0-1.055,0.031-1.586,0.078-0.18,0.016-1.57,0.219-1.75,0.25-9.43,0-17.102-7.172-17.102-16 0-8.781 7.617-15.953 17.102-15.953 0.211,0.016 1.531,0.188 1.75,0.203 8.211,0.813 15.586-4.672 17.242-12.688 0.468-2.266 1.104-4.176 1.61-6.362 7.305,8.809 16.357,15.735 31.269,20.321-3.076,4.036-4.973,9.015-4.973,14.48 0,13.255 10.745,24 24,24s24-10.745 24-24c0-2.977-0.611-5.796-1.602-8.426 5.488,0.252 11.241,0.426 17.602,0.426 6.36,0 12.113-0.171 17.6-0.42-0.989,2.629-1.6,5.445-1.6,8.42 0,13.255 10.745,24 24,24 13.255,0 24-10.745 24-24 0-5.435-1.875-10.391-4.92-14.414 14.977-4.559 24.012-11.455 31.255-20.23 0.492,2.135 1.115,3.996 1.571,6.207 1.664,8.016 9.117,13.484 17.242,12.688l1.75-.25c9.43,0 17.102,7.172 17.102,16 0,8.781-7.617,15.953-17.102,15.953-0.211-0.016-1.531-0.188-1.75-0.203-8.109-0.734-15.578,4.672-17.242,12.688-13.843,66.998-43.906,99.561-91.906,99.561s-78.063-32.563-91.906-99.563zm91.906,178.438c-23.785-9.357-46.784-22.057-57.629-31.194 6.443-5.515 11.352-13.588 14.327-23.65 14.713,5.863 29.622,7.969 43.302,7.969s28.589-2.106 43.303-7.97c2.959,10.008 7.824,18.057 14.217,23.57-10.904,9.287-33.817,21.939-57.52,31.275zm-192,40.781c0-12.828 7.609-24.375 19.398-29.422l53.508-22.938c3.57-1.531 6.672-2.922 9.469-4.188 7.97-3.599 12.408-5.558 18.725-6.464 13.364,22.482 50.479,40.459 74.9,50.311v61.045h-176v-48.344zm384,48.344h-176v-61.044c24.421-9.852 61.536-27.828 74.9-50.311 6.316,0.906 10.755,2.865 18.725,6.464 2.797,1.266 5.898,2.656 9.469,4.188l53.508,22.938c11.789,5.046 19.398,16.593 19.398,29.421v48.344z"/>
    <path d="m240,288h32c8.836,0 16-7.156 16-16 0-8.844-7.164-16-16-16h-32c-8.836,0-16,7.156-16,16 0,8.844 7.164,16 16,16z"/>
    <circle cx="256" cy="64" r="16"/>
  </g>
</svg>