<?xml version="1.0" encoding="UTF-8" standalone="no"?>
<!-- Created with Inkscape (http://www.inkscape.org/) -->

<svg
   width="81.200005mm"
   height="81.140755mm"
   viewBox="0 0 81.200005 81.140755"
   version="1.1"
   id="svg1"
   xml:space="preserve"
   xmlns="http://www.w3.org/2000/svg"
   xmlns:svg="http://www.w3.org/2000/svg"><defs
     id="defs1" /><g
     id="layer1"
     transform="translate(-61.041101,-103.66454)"><g
       style="fill:none"
       id="g2"
       transform="matrix(0.69952911,0,0,0.69952911,399.68639,493.6858)"><path
         id="path1-3"
         style="color:#000000;opacity:0.5;fill:#1c274c;stroke-width:5.39517;-inkscape-stroke:none"
         d="m -426.06335,-557.54829 c -7.68192,0 -13.93298,3.92671 -25.20507,10.64144 l -7.47717,4.44567 c -12.41272,7.3942 -19.5118,11.38355 -23.11891,18.90771 -3.60715,7.52406 -2.2425,15.51684 -0.1953,29.74445 l 1.50795,10.45391 c 1.3148,9.13807 2.28685,16.07567 3.85183,21.74384 1.56498,5.66822 3.88647,10.25067 7.79748,13.61828 3.91102,3.36756 8.78491,4.9915 14.64957,5.72697 5.86461,0.73547 12.92316,0.71098 22.22045,0.71098 h 11.93062 c 9.29717,0 16.35579,0.027 22.22045,-0.71098 5.86466,-0.73547 10.73844,-2.35941 14.64957,-5.72697 3.9108,-3.36767 6.23245,-7.95011 7.79742,-13.61828 1.56498,-5.66812 2.54464,-12.60577 3.85971,-21.74384 l 1.5079,-10.45391 c 2.04752,-14.22772 3.40354,-22.2205 -0.20286,-29.74445 -3.47034,-7.23962 -10.21797,-11.20442 -21.73602,-18.07172 -0.45319,-0.2703 -0.91308,-0.55614 -1.38294,-0.83599 l -7.4693,-4.44567 c -11.27165,-6.71473 -17.52314,-10.64144 -25.20506,-10.64144 z m 0,8.09438 c 4.77332,0 9.79256,2.78606 21.0641,9.50073 l 7.46929,4.45345 c 0.46938,0.28001 0.9317,0.55133 1.38295,0.82039 11.47197,6.83984 16.43165,10.16159 18.57175,14.6261 2.22459,4.64082 1.53174,10.86825 -0.51578,25.0957 l -1.4923,10.4539 c -1.31508,9.13808 -2.31394,15.90152 -3.64871,20.73597 -1.33482,4.83445 -2.85318,7.55017 -5.28165,9.64139 -2.4288,2.09123 -5.35817,3.19918 -10.37584,3.82842 -5.01767,0.62924 -11.91535,0.65627 -21.21253,0.65627 h -11.93061 c -9.29729,0 -16.19496,-0.027 -21.21258,-0.65627 -5.01762,-0.62924 -7.94714,-1.73719 -10.37578,-3.82842 -2.42869,-2.09122 -3.94689,-4.80694 -5.28166,-9.64139 -1.33477,-4.8344 -2.32608,-11.59789 -3.64088,-20.73597 l -1.50795,-10.4539 c -2.04714,-14.22761 -2.73244,-20.45537 -0.50769,-25.0957 2.2246,-4.64034 7.54192,-8.05224 19.95465,-15.44649 l 7.47717,-4.45345 c 11.27202,-6.71472 16.29072,-9.50073 21.0641,-9.50073 z m -15.71997,67.4661 a 4.0463798,4.0463798 0 0 0 -3.71124,1.60948 4.0463798,4.0463798 0 0 0 0.82822,5.65668 c 5.24071,3.88442 11.69107,6.19582 18.60299,6.19582 6.91186,0 13.3544,-2.30363 18.59516,-6.188 a 4.0463798,4.0463798 0 0 0 0.84381,-5.6645 4.0463798,4.0463798 0 0 0 -2.66425,-1.59384 4.0463798,4.0463798 0 0 0 -3.00808,0.75004 c -3.93529,2.91679 -8.64301,4.60192 -13.76664,4.60192 -5.12369,0 -9.83934,-1.67736 -13.77453,-4.5941 a 4.0463798,4.0463798 0 0 0 -1.94544,-0.7735 z" /></g></g></svg>
