<?xml version="1.0" encoding="UTF-8" standalone="no"?>
<!-- Created with Inkscape (http://www.inkscape.org/) -->

<svg
   width="59.507961mm"
   height="82.719254mm"
   viewBox="0 0 59.507961 82.719254"
   version="1.1"
   id="svg1"
   xml:space="preserve"
   xmlns="http://www.w3.org/2000/svg"
   xmlns:svg="http://www.w3.org/2000/svg"><defs
     id="defs1" /><g
     id="layer1"
     transform="translate(-71.81225,-112.65203)"><g
       style="fill:none"
       id="g1"
       transform="matrix(300.48913,0,0,300.48913,-5052.6221,-7224.4797)"><path
         id="path1"
         style="color:#000000;fill:#666666;stroke-width:0.0129177;stroke-linecap:round;stroke-linejoin:round;-inkscape-stroke:none"
         d="m 17.151498,24.417296 c -0.03688,0 -0.06703,0.03015 -0.06691,0.06704 v 2.4e-5 c 0,9e-6 0,1.7e-5 0,2.5e-5 2.7e-5,0.03607 0.02867,0.06565 0.06451,0.06686 a 0.00968924,0.00968924 0 0 0 0.0013,-2.5e-5 c 8.19e-4,-7.1e-5 0.0019,-5.4e-5 0.0024,0 a 0.00968924,0.00968924 0 0 0 0.0013,2.5e-5 c 0.03574,-0.0012 0.06451,-0.03079 0.06451,-0.06691 0,-0.03689 -0.03015,-0.06704 -0.06704,-0.06704 z m 0,0.01938 c 0.0264,0 0.04766,0.02126 0.04766,0.04766 0,0.02577 -0.02013,0.0465 -0.04545,0.04754 -0.0014,-9.6e-5 -0.0028,-9.4e-5 -0.0043,1e-6 -0.02548,-0.001 -0.04548,-0.02172 -0.04548,-0.04754 a 0.00968924,0.00968924 0 0 0 0,-2.6e-5 c -1.08e-4,-0.02638 0.02113,-0.04764 0.04753,-0.04764 z m -7.5e-5,0.124636 c -0.02511,0 -0.05022,0.0066 -0.07002,0.01986 -0.01766,0.01176 -0.02776,0.02853 -0.02776,0.04594 0,0.01741 0.01007,0.03418 0.02772,0.04599 a 0.00968924,0.00968924 0 0 0 2.5e-5,2.5e-5 c 0.01984,0.01323 0.04495,0.01945 0.07008,0.01945 a 0.00968827,0.00968827 0 0 0 0.0097,-0.0097 0.00968827,0.00968827 0 0 0 -0.0097,-0.0097 c -0.02188,0 -0.04353,-0.0056 -0.05934,-0.0162 -0.01361,-0.0091 -0.01912,-0.01983 -0.01912,-0.0299 0,-0.01006 0.0055,-0.02077 0.0191,-0.02982 a 0.00968924,0.00968924 0 0 0 2.6e-5,0 c 0.03146,-0.02105 0.08708,-0.02105 0.11853,0 a 0.00968827,0.00968827 0 0 0 0.01345,-0.0026 0.00968827,0.00968827 0 0 0 -0.0026,-0.01342 c -0.01979,-0.01325 -0.04491,-0.01988 -0.07004,-0.01988 z m 0.09062,0.05659 a 0.00968827,0.00968827 0 0 0 -0.0069,0.0028 l -0.03242,0.03242 -0.01277,-0.01279 a 0.00968827,0.00968827 0 0 0 -0.0137,0 0.00968827,0.00968827 0 0 0 0,0.0137 l 0.01963,0.01963 a 0.00968924,0.00968924 0 0 0 0.0137,0 l 0.03926,-0.03926 a 0.00968827,0.00968827 0 0 0 0,-0.0137 0.00968827,0.00968827 0 0 0 -0.0068,-0.0028 z" /></g></g></svg>
